<svg width="101" height="101" viewBox="0 0 101 101" fill="none" xmlns="http://www.w3.org/2000/svg">
<g clip-path="url(#clip0_65_1111)">
<circle cx="50.5262" cy="50.7404" r="50" fill="#152973"/>
<path fill-rule="evenodd" clip-rule="evenodd" d="M95.3664 80.1246L76.9465 61.7047C78.7682 57.0491 77.7562 51.5839 73.9102 47.738C69.8619 43.6896 63.7894 42.88 58.9314 45.1065L67.6353 53.8105L61.5628 59.883L52.6565 51.179C50.2275 56.037 51.2396 62.1095 55.2879 66.1579C59.1338 70.0038 64.5991 71.0159 69.2547 69.1941L87.6746 87.614C88.4842 88.4237 89.6987 88.4237 90.5084 87.614L95.164 82.9585C96.1761 82.1488 96.1761 80.7319 95.3664 80.1246Z" fill="#00A91C"/>
<path fill-rule="evenodd" clip-rule="evenodd" d="M41.8987 49.9445C41.9631 49.4613 41.9953 48.9621 41.9953 48.4307C41.9953 47.9154 41.9631 47.4 41.8826 46.9169L45.1517 44.3725C45.4415 44.1471 45.5221 43.7123 45.3449 43.3902L42.253 38.0437C42.0597 37.6894 41.6571 37.5767 41.3029 37.6894L37.454 39.2354C36.6488 38.6235 35.7953 38.1081 34.8452 37.7216L34.2655 33.6313C34.2011 33.2448 33.879 32.971 33.4925 32.971H27.3086C26.9221 32.971 26.6162 33.2448 26.5517 33.6313L25.972 37.7216C25.0219 38.1081 24.1523 38.6396 23.3632 39.2354L19.5144 37.6894C19.1601 37.5606 18.7575 37.6894 18.5642 38.0437L15.4884 43.3902C15.2952 43.7284 15.3596 44.1471 15.6816 44.3725L18.9507 46.9169C18.8702 47.4 18.8058 47.9315 18.8058 48.4307C18.8058 48.9299 18.838 49.4613 18.9185 49.9445L15.6494 52.4889C15.3596 52.7143 15.2791 53.1491 15.4562 53.4712L18.5481 58.8177C18.7414 59.172 19.144 59.2847 19.4983 59.172L23.3471 57.626C24.1523 58.2379 25.0058 58.7533 25.9559 59.1397L26.5356 63.2301C26.6162 63.6166 26.9221 63.8904 27.3086 63.8904H33.4925C33.879 63.8904 34.2011 63.6166 34.2494 63.2301L34.8291 59.1397C35.7792 58.7533 36.6488 58.2379 37.4379 57.626L41.2868 59.172C41.641 59.3008 42.0436 59.172 42.2369 58.8177L45.3288 53.4712C45.5221 53.1169 45.4415 52.7143 45.1356 52.4889L41.8987 49.9445ZM30.4006 54.2281C27.212 54.2281 24.6032 51.6193 24.6032 48.4307C24.6032 45.2421 27.212 42.6333 30.4006 42.6333C33.5891 42.6333 36.1979 45.2421 36.1979 48.4307C36.1979 51.6193 33.5891 54.2281 30.4006 54.2281Z" fill="white"/>
<path fill-rule="evenodd" clip-rule="evenodd" d="M62.4619 25.5502C62.5058 25.8794 62.5278 26.2196 62.5278 26.5818C62.5278 26.933 62.5058 27.2842 62.451 27.6134L64.6789 29.3475C64.8764 29.5011 64.9313 29.7974 64.8106 30.0169L62.7034 33.6606C62.5717 33.902 62.2973 33.9788 62.0559 33.902L59.4329 32.8484C58.8842 33.2655 58.3025 33.6167 57.655 33.8801L57.2599 36.6676C57.216 36.931 56.9965 37.1176 56.7331 37.1176H52.5188C52.2554 37.1176 52.0469 36.931 52.003 36.6676L51.6079 33.8801C50.9604 33.6167 50.3677 33.2545 49.83 32.8484L47.207 33.902C46.9655 33.9898 46.6912 33.902 46.5595 33.6606L44.4633 30.0169C44.3316 29.7865 44.3755 29.5011 44.595 29.3475L46.8229 27.6134C46.768 27.2842 46.7241 26.922 46.7241 26.5818C46.7241 26.2416 46.746 25.8794 46.8009 25.5502L44.573 23.8162C44.3755 23.6625 44.3206 23.3662 44.4413 23.1467L46.5485 19.5031C46.6802 19.2616 46.9546 19.1848 47.196 19.2616L49.819 20.3152C50.3677 19.8982 50.9494 19.547 51.5969 19.2836L51.992 16.496C52.0469 16.2326 52.2554 16.046 52.5188 16.046H56.7331C56.9965 16.046 57.216 16.2326 57.2489 16.496L57.644 19.2836C58.2915 19.547 58.8842 19.8982 59.4219 20.3152L62.0449 19.2616C62.2864 19.1738 62.5607 19.2616 62.6924 19.5031L64.7996 23.1467C64.9313 23.3882 64.8764 23.6625 64.6679 23.8162L62.4619 25.5502ZM54.6259 22.6309C52.4529 22.6309 50.675 24.4088 50.675 26.5818C50.675 28.7548 52.4529 30.5327 54.6259 30.5327C56.799 30.5327 58.5769 28.7548 58.5769 26.5818C58.5769 24.4088 56.799 22.6309 54.6259 22.6309Z" fill="#D9E8F6"/>
</g>
<defs>
<clipPath id="clip0_65_1111">
<rect width="100" height="100" fill="white" transform="translate(0.526245 0.740417)"/>
</clipPath>
</defs>
</svg>
