<svg width="101" height="100" viewBox="0 0 101 100" fill="none" xmlns="http://www.w3.org/2000/svg">
<g clip-path="url(#clip0_65_1114)">
<circle cx="50.5262" cy="50" r="50" fill="#152973"/>
<rect x="20.3678" y="20.0206" width="60.3167" height="82.9038" fill="#D9E8F6"/>
<circle cx="50.3387" cy="35.0206" r="23.1597" fill="white"/>
<path fill-rule="evenodd" clip-rule="evenodd" d="M64.5993 44.6637V48.9419H36.0779V44.6637H64.5993ZM43.2082 31.829V41.8115H38.93V31.829H43.2082ZM52.4777 31.829V41.8115H48.1995V31.829H52.4777ZM61.7472 31.829V41.8115H57.469V31.829H61.7472ZM50.3386 18.9944L64.5993 26.1247V28.9769H36.0779V26.1247L50.3386 18.9944Z" fill="#00A91C"/>
<rect x="32.847" y="63.0565" width="35.3582" height="50.6141" fill="white"/>
<line x1="47.4994" y1="71.9156" x2="64.4113" y2="71.9156" stroke="#D9E8F6" stroke-width="2"/>
<line x1="47.4994" y1="68.6436" x2="64.4113" y2="68.6436" stroke="#D9E8F6" stroke-width="2"/>
<path fill-rule="evenodd" clip-rule="evenodd" d="M35.8387 68.3555V75.3555C35.8387 75.9055 36.3092 76.3555 36.8959 76.3555H44.296C44.8775 76.3555 45.3532 75.9055 45.3532 75.3555V68.3555C45.3532 67.8055 44.8775 67.3555 44.296 67.3555H36.8959C36.3092 67.3555 35.8387 67.8055 35.8387 68.3555ZM42.1817 70.3555C42.1817 71.1855 41.4734 71.8555 40.596 71.8555C39.7185 71.8555 39.0102 71.1855 39.0102 70.3555C39.0102 69.5255 39.7185 68.8555 40.596 68.8555C41.4734 68.8555 42.1817 69.5255 42.1817 70.3555ZM37.4245 74.3555C37.4245 73.3555 39.5388 72.8055 40.596 72.8055C41.6531 72.8055 43.7675 73.3555 43.7675 74.3555V74.8555H37.4245V74.3555Z" fill="#005EA2"/>
<line x1="47.4994" y1="83.3021" x2="64.4113" y2="83.3021" stroke="#D9E8F6" stroke-width="2"/>
<line x1="47.4994" y1="80.03" x2="64.4113" y2="80.03" stroke="#D9E8F6" stroke-width="2"/>
<path fill-rule="evenodd" clip-rule="evenodd" d="M35.8387 79.7419V86.7419C35.8387 87.2919 36.3092 87.7419 36.8959 87.7419H44.296C44.8775 87.7419 45.3532 87.2919 45.3532 86.7419V79.7419C45.3532 79.1919 44.8775 78.7419 44.296 78.7419H36.8959C36.3092 78.7419 35.8387 79.1919 35.8387 79.7419ZM42.1817 81.7419C42.1817 82.5719 41.4734 83.2419 40.596 83.2419C39.7185 83.2419 39.0102 82.5719 39.0102 81.7419C39.0102 80.9119 39.7185 80.2419 40.596 80.2419C41.4734 80.2419 42.1817 80.9119 42.1817 81.7419ZM37.4245 85.7419C37.4245 84.7419 39.5388 84.1919 40.596 84.1919C41.6531 84.1919 43.7675 84.7419 43.7675 85.7419V86.2419H37.4245V85.7419Z" fill="#005EA2"/>
<line x1="47.4994" y1="95.9156" x2="64.4113" y2="95.9156" stroke="#D9E8F6" stroke-width="2"/>
<line x1="47.4994" y1="92.6436" x2="64.4113" y2="92.6436" stroke="#D9E8F6" stroke-width="2"/>
<path fill-rule="evenodd" clip-rule="evenodd" d="M35.8387 92.3555V99.3555C35.8387 99.9055 36.3092 100.355 36.8959 100.355H44.296C44.8775 100.355 45.3532 99.9055 45.3532 99.3555V92.3555C45.3532 91.8055 44.8775 91.3555 44.296 91.3555H36.8959C36.3092 91.3555 35.8387 91.8055 35.8387 92.3555ZM42.1817 94.3555C42.1817 95.1855 41.4734 95.8555 40.596 95.8555C39.7185 95.8555 39.0102 95.1855 39.0102 94.3555C39.0102 93.5255 39.7185 92.8555 40.596 92.8555C41.4734 92.8555 42.1817 93.5255 42.1817 94.3555ZM37.4245 98.3555C37.4245 97.3555 39.5388 96.8055 40.596 96.8055C41.6531 96.8055 43.7675 97.3555 43.7675 98.3555V98.8555H37.4245V98.3555Z" fill="#005EA2"/>
</g>
<defs>
<clipPath id="clip0_65_1114">
<rect x="0.526245" width="100" height="100" rx="50" fill="white"/>
</clipPath>
</defs>
</svg>
