<svg width="101" height="101" viewBox="0 0 101 101" fill="none" xmlns="http://www.w3.org/2000/svg">
<circle cx="50.5262" cy="50.6539" r="50" fill="#152973"/>
<path fill-rule="evenodd" clip-rule="evenodd" d="M31.8169 48.6539H82.2822C83.6541 48.6539 84.764 49.7763 84.764 51.1481L84.7765 73.5965L79.788 68.608H31.8169C30.4451 68.608 29.3226 67.4855 29.3226 66.1137V51.1481C29.3226 49.7763 30.4451 48.6539 31.8169 48.6539Z" fill="#D9E8F6"/>
<line x1="55.64" y1="61.4501" x2="36.0234" y2="61.4501" stroke="#005EA2" stroke-width="2"/>
<path d="M79.0276 55.9715L36.0235 55.9715" stroke="#005EA2" stroke-width="2"/>
<path fill-rule="evenodd" clip-rule="evenodd" d="M70.2576 25.241H84.0522C85.0005 25.241 85.7679 26.0169 85.7679 26.9653L85.7765 42.4842L82.3278 39.0356H70.2576C69.3092 39.0356 68.5332 38.2596 68.5332 37.3112V26.9653C68.5332 26.0169 69.3092 25.241 70.2576 25.241Z" fill="white"/>
<path d="M76.0224 33.2466C75.9771 32.9518 75.996 32.6947 76.0791 32.4754C76.1699 32.2561 76.2908 32.0633 76.4421 31.8969C76.6009 31.7306 76.7634 31.5794 76.9298 31.4433C77.0961 31.3071 77.236 31.1748 77.3494 31.0463C77.4629 30.9177 77.5196 30.7816 77.5196 30.638C77.5196 30.4338 77.4477 30.2901 77.3041 30.207C77.168 30.1162 77.013 30.0709 76.8391 30.0709C76.6273 30.0709 76.4421 30.1162 76.2833 30.207C76.1245 30.2977 75.9619 30.4111 75.7956 30.5472L74.7294 29.5718C75.0092 29.2542 75.3381 28.9971 75.7162 28.8005C76.1018 28.6039 76.5215 28.5056 76.9752 28.5056C77.4137 28.5056 77.8145 28.5737 78.1774 28.7098C78.5404 28.8383 78.8315 29.0425 79.0508 29.3223C79.27 29.5945 79.3797 29.9499 79.3797 30.3884C79.3797 30.6833 79.3192 30.9329 79.1982 31.137C79.0848 31.3412 78.9411 31.5226 78.7672 31.6814C78.5933 31.8327 78.4232 31.9801 78.2568 32.1238C78.0905 32.2674 77.9544 32.43 77.8485 32.6115C77.7426 32.7854 77.7011 32.9971 77.7237 33.2466H76.0224ZM76.9071 36.3771C76.5442 36.3771 76.2455 36.2599 76.0111 36.0255C75.7767 35.7835 75.6595 35.481 75.6595 35.1181C75.6595 34.7552 75.7767 34.4603 76.0111 34.2334C76.2455 33.999 76.5442 33.8818 76.9071 33.8818C77.2701 33.8818 77.5687 33.999 77.8031 34.2334C78.0375 34.4603 78.1547 34.7552 78.1547 35.1181C78.1547 35.481 78.0375 35.7835 77.8031 36.0255C77.5687 36.2599 77.2701 36.3771 76.9071 36.3771Z" fill="#D9E8F6"/>
<path d="M10.6954 54.958L21.222 44.4315L58.3493 43.9659C61.2816 43.9659 63.6807 41.5668 63.6807 38.6345V20.4278C63.6807 17.4955 61.2816 15.0964 58.3493 15.0964H15.6977C12.7654 15.0964 10.3929 17.4955 10.3929 20.4278L9.9273 20.4275L9.9273 20.4278L9.90064 54.6285L9.89976 55.7537L10.6954 54.958Z" fill="white" stroke="#152973" stroke-width="0.93114"/>
<path d="M19.6103 36.0472V22.4494H29.5783L29.5595 25.4398H23.2684V27.8848H28.5251V30.7999H23.2684V36.0472H19.6103ZM29.1838 36.0472L33.9985 22.4494H37.7412L42.556 36.0472H38.9449L38.0422 33.4142H33.754L32.8325 36.0472H29.1838ZM34.5251 30.2921H37.2146L35.8793 25.9476L34.5251 30.2921ZM56.1643 38.3982C55.4371 38.3982 54.7913 38.3512 54.2271 38.2571C53.6692 38.1631 53.1394 37.9562 52.6379 37.6365C52.1426 37.3168 51.6254 36.8184 51.0862 36.1413C50.7602 36.1789 50.4875 36.204 50.2681 36.2165C50.0487 36.229 49.8199 36.2353 49.5816 36.2353C48.2338 36.2353 47.0646 35.9501 46.074 35.3796C45.0898 34.8028 44.3281 33.9941 43.7889 32.9534C43.2498 31.9127 42.9802 30.6871 42.9802 29.2765C42.9802 27.8597 43.2529 26.6278 43.7983 25.5808C44.35 24.5276 45.1211 23.7126 46.1116 23.1358C47.1022 22.5528 48.2588 22.2613 49.5816 22.2613C50.9044 22.2613 52.058 22.5528 53.0422 23.1358C54.0328 23.7126 54.8007 24.5276 55.3462 25.5808C55.8916 26.6278 56.1643 27.8597 56.1643 29.2765C56.1643 30.3736 55.9982 31.361 55.6659 32.2387C55.3336 33.1164 54.8603 33.8844 54.2459 34.5426C54.3274 34.8059 54.5531 35.0379 54.923 35.2385C55.2929 35.4391 55.7066 35.5394 56.1643 35.5394V38.3982ZM49.5816 33.3013C50.3904 33.3013 51.0236 33.0067 51.4812 32.4174C51.9451 31.8218 52.1771 30.7874 52.1771 29.3141C52.1771 27.797 51.942 26.7312 51.4718 26.1168C51.0016 25.5025 50.3716 25.1953 49.5816 25.1953C48.7917 25.1953 48.1617 25.5025 47.6915 26.1168C47.2276 26.7312 46.9956 27.797 46.9956 29.3141C46.9956 30.7874 47.2244 31.8218 47.6821 32.4174C48.1397 33.0067 48.7729 33.3013 49.5816 33.3013Z" fill="#00A91C"/>
</svg>
