<svg width="101" height="101" viewBox="0 0 101 101" fill="none" xmlns="http://www.w3.org/2000/svg">
<g clip-path="url(#clip0_65_1113)">
<circle cx="50.5262" cy="50.9135" r="50" fill="#152973"/>
<rect x="29.6899" y="27.1487" width="47.2286" height="66.6757" fill="white"/>
<rect x="26.9121" y="29.9269" width="47.2286" height="66.3309" fill="#152973"/>
<rect x="24.1339" y="33.3073" width="47.2286" height="67.6062" fill="white"/>
<line x1="47.3199" y1="47.3628" x2="63.0278" y2="47.3628" stroke="#D9E8F6" stroke-width="3.125"/>
<line x1="47.3199" y1="41.545" x2="63.0278" y2="41.545" stroke="#D9E8F6" stroke-width="3.125"/>
<path fill-rule="evenodd" clip-rule="evenodd" d="M27.7084 40.8172V53.2633C27.7084 54.2412 28.4996 55.0413 29.4864 55.0413H41.9325C42.9104 55.0413 43.7105 54.2412 43.7105 53.2633V40.8172C43.7105 39.8393 42.9104 39.0392 41.9325 39.0392H29.4864C28.4996 39.0392 27.7084 39.8393 27.7084 40.8172ZM38.3765 44.3732C38.3765 45.849 37.1852 47.0403 35.7095 47.0403C34.2337 47.0403 33.0424 45.849 33.0424 44.3732C33.0424 42.8975 34.2337 41.7062 35.7095 41.7062C37.1852 41.7062 38.3765 42.8975 38.3765 44.3732ZM30.3754 51.4853C30.3754 49.7073 33.9314 48.7294 35.7095 48.7294C37.4875 48.7294 41.0435 49.7073 41.0435 51.4853V52.3743H30.3754V51.4853Z" fill="#00A91C"/>
<line x1="47.3199" y1="68.8102" x2="63.0278" y2="68.8102" stroke="#D9E8F6" stroke-width="3.125"/>
<line x1="47.3199" y1="62.9924" x2="63.0278" y2="62.9924" stroke="#D9E8F6" stroke-width="3.125"/>
<path fill-rule="evenodd" clip-rule="evenodd" d="M27.7084 62.2646V74.7107C27.7084 75.6886 28.4996 76.4887 29.4864 76.4887H41.9325C42.9104 76.4887 43.7105 75.6886 43.7105 74.7107V62.2646C43.7105 61.2867 42.9104 60.4866 41.9325 60.4866H29.4864C28.4996 60.4866 27.7084 61.2867 27.7084 62.2646ZM38.3765 65.8206C38.3765 67.2964 37.1852 68.4877 35.7095 68.4877C34.2337 68.4877 33.0424 67.2964 33.0424 65.8206C33.0424 64.3449 34.2337 63.1536 35.7095 63.1536C37.1852 63.1536 38.3765 64.3449 38.3765 65.8206ZM30.3754 72.9327C30.3754 71.1547 33.9314 70.1768 35.7095 70.1768C37.4875 70.1768 41.0435 71.1547 41.0435 72.9327V73.8217H30.3754V72.9327Z" fill="#00A91C"/>
<line x1="47.3199" y1="90.2574" x2="63.0278" y2="90.2574" stroke="#D9E8F6" stroke-width="3.125"/>
<line x1="47.3199" y1="84.4397" x2="63.0278" y2="84.4397" stroke="#D9E8F6" stroke-width="3.125"/>
<path fill-rule="evenodd" clip-rule="evenodd" d="M27.7084 83.7119V96.158C27.7084 97.1359 28.4996 97.936 29.4864 97.936H41.9325C42.9104 97.936 43.7105 97.1359 43.7105 96.158V83.7119C43.7105 82.7339 42.9104 81.9338 41.9325 81.9338H29.4864C28.4996 81.9338 27.7084 82.7339 27.7084 83.7119ZM38.3765 87.2679C38.3765 88.7436 37.1852 89.9349 35.7095 89.9349C34.2337 89.9349 33.0424 88.7436 33.0424 87.2679C33.0424 85.7921 34.2337 84.6009 35.7095 84.6009C37.1852 84.6009 38.3765 85.7921 38.3765 87.2679ZM30.3754 94.38C30.3754 92.6019 33.9314 91.624 35.7095 91.624C37.4875 91.624 41.0435 92.6019 41.0435 94.38V95.269H30.3754V94.38Z" fill="#00A91C"/>
</g>
<defs>
<clipPath id="clip0_65_1113">
<rect x="0.526245" y="0.913452" width="100" height="100" rx="50" fill="white"/>
</clipPath>
</defs>
</svg>
